<svg width="106" height="105" viewBox="0 0 106 105" fill="none" xmlns="http://www.w3.org/2000/svg">
<path d="M40.6519 104.477L56.3599 100.249C58.613 99.6389 60.9835 99.6049 63.2532 100.15C65.5229 100.696 67.6189 101.804 69.3484 103.371C79.4596 100.049 88.3209 93.7289 94.756 85.2515C101.191 76.7742 104.895 66.54 105.377 55.9078C100.339 57.4716 94.9453 57.479 89.9022 55.9291C84.8591 54.3792 80.4008 51.344 77.1099 47.2203C73.819 43.0966 71.8485 38.0761 71.4561 32.8148C71.0636 27.5535 72.2673 22.2962 74.9099 17.7298C76.3729 15.1923 77.9409 12.7318 79.5649 10.3133L90.1874 16.4453C84.4681 10.6842 77.4906 6.32785 69.8033 3.71868C62.116 1.10951 53.9284 0.318573 45.8838 1.40804C37.8393 2.4975 30.1569 5.43769 23.4405 9.99753C16.7241 14.5574 11.1567 20.6126 7.17568 27.6875C3.19467 34.7623 0.908564 42.664 0.497017 50.7716C0.0854699 58.8792 1.55969 66.9717 4.80384 74.4133C8.04798 81.8549 12.9737 88.4429 19.1938 93.6594C25.4139 98.8759 32.759 102.579 40.6519 104.477Z" fill="#DBA8AE"/>
</svg>
