<svg width="104" height="109" viewBox="0 0 104 109" fill="none" xmlns="http://www.w3.org/2000/svg">
<path d="M103.048 0.280273L69.1615 35.6688C60.5851 44.6246 53.1162 54.5789 46.9155 65.3173L37.875 80.9798C36.0801 84.0859 33.6672 86.7908 30.7853 88.9272C27.9035 91.0637 24.614 92.5863 21.1203 93.4008C17.6266 94.2153 14.0029 94.3045 10.4734 93.6629C6.94385 93.0212 3.58345 91.6623 0.599976 89.6703C2.10998 94.5454 5.01 98.8738 8.94434 102.125C12.8787 105.375 17.6763 107.407 22.7486 107.971C27.821 108.535 32.9477 107.606 37.4997 105.298C42.0518 102.99 45.8314 99.4044 48.375 94.9798L57.4155 79.3173L47.6155 68.2783L66.75 63.1543L103.048 0.280273Z" fill="#F09E9E"/>
</svg>
