<svg width="62" height="56" viewBox="0 0 62 56" fill="none" xmlns="http://www.w3.org/2000/svg">
<path d="M44.3998 3.50125L44.4202 3.50131C51.9156 3.50131 58.5 10.2279 58.5 19.1802C58.5 22.8678 57.0369 26.7485 54.5057 30.6615C51.9851 34.558 48.5505 38.2608 44.9757 41.5203C39.1949 46.7911 33.3041 50.6731 31.0051 52.1149C28.7161 50.6628 22.8192 46.7328 17.0304 41.4295C13.4525 38.1517 10.0146 34.4383 7.49185 30.5494C4.95612 26.6405 3.5 22.7946 3.5 19.1802C3.5 10.2279 10.0843 3.50131 17.5796 3.50131L17.6247 3.50102C21.6266 3.44948 25.5338 5.36582 28.2158 8.88632C28.8755 9.75215 29.9004 10.2618 30.9889 10.2652C32.0773 10.2687 33.1054 9.76552 33.7705 8.90388C36.477 5.39759 40.3866 3.47785 44.3998 3.50125Z" fill="#FF5B8A" stroke="#FF5B8A" stroke-width="7" stroke-linejoin="round"/>
</svg>
