<svg width="62" height="62" viewBox="0 0 62 62" fill="none" xmlns="http://www.w3.org/2000/svg">
<path d="M30.9999 0.390869C47.9043 0.390869 61.6086 14.0952 61.6086 30.9996C61.6086 47.9039 47.9043 61.6083 30.9999 61.6083C14.0956 61.6083 0.391235 47.9039 0.391235 30.9996C0.391235 14.0952 14.0956 0.390869 30.9999 0.390869ZM44.913 25.4343C44.913 23.9039 43.6608 22.6517 42.1304 22.6517C40.5999 22.6517 39.3478 23.9039 39.3478 25.4343C39.3478 26.9648 40.5999 28.217 42.1304 28.217C43.6608 28.217 44.913 26.9648 44.913 25.4343ZM22.6521 25.4343C22.6521 23.9039 21.3999 22.6517 19.8695 22.6517C18.3391 22.6517 17.0869 23.9039 17.0869 25.4343C17.0869 26.9648 18.3391 28.217 19.8695 28.217C21.3999 28.217 22.6521 26.9648 22.6521 25.4343Z" fill="#FCFF7C"/>
</svg>
