<svg width="196" height="188" viewBox="0 0 196 188" fill="none" xmlns="http://www.w3.org/2000/svg">
<path d="M196 112.374C196 107.466 194.048 102.893 190.684 99.5198C194.497 95.3468 196.441 89.7524 195.91 83.9298C194.955 73.5498 185.604 65.4158 174.611 65.4158H124.166C126.665 57.8289 130.667 43.9213 130.667 32.7493C130.667 15.0358 115.616 0.0827637 106.167 0.0827637C97.6895 0.0827637 91.6216 4.86026 91.3685 5.05626C90.3966 5.83222 89.8331 7.00822 89.8331 8.2493V35.9423L66.305 86.8943L65.3331 87.3923V85.8324C65.3331 83.5784 63.5036 81.7489 61.2496 81.7489H20.4165C9.15496 81.7493 0 90.9043 0 102.166V167.499C0 178.761 9.15496 187.916 20.4165 187.916H44.9165C53.7446 187.916 61.2906 182.281 64.1326 174.416C70.9275 177.912 80.074 179.749 85.75 179.749H160.712C169.605 179.749 177.388 173.755 179.217 165.49C180.157 161.227 179.609 156.94 177.747 153.216C183.774 150.186 187.833 143.955 187.833 136.874C187.833 133.983 187.172 131.215 185.922 128.716C191.949 125.678 196 119.455 196 112.374ZM178.777 122.452C177.2 122.64 175.869 123.709 175.363 125.22C174.865 126.731 175.281 128.389 176.441 129.483C178.515 131.435 179.667 134.065 179.667 136.874C179.667 142.027 175.771 146.356 170.618 146.952C169.042 147.14 167.711 148.209 167.205 149.72C166.707 151.231 167.123 152.889 168.283 153.983C170.97 156.515 172.048 160.067 171.239 163.726C170.235 168.283 165.808 171.583 160.712 171.583H85.75C79.1185 171.583 67.9955 168.471 64.141 164.608C62.973 163.449 61.209 163.106 59.69 163.726C58.163 164.355 57.1665 165.85 57.1665 167.499C57.1665 174.253 51.6705 179.749 44.9165 179.749H20.4165C13.6626 179.749 8.16654 174.253 8.16654 167.499V102.166C8.16654 95.4119 13.6626 89.9158 20.4165 89.9158H57.1665V93.9993C57.1665 95.4122 57.9015 96.7268 59.1101 97.4783C60.3025 98.1968 61.8051 98.2703 63.0791 97.6498L71.2456 93.5663C72.0706 93.1579 72.7321 92.4719 73.1241 91.6308L97.6241 38.5474C97.8691 38.0084 97.9996 37.4204 97.9996 36.8324V10.4623C99.6985 9.5233 102.647 8.2493 106.167 8.2493C110.642 8.2493 122.5 19.3723 122.5 32.7493C122.5 47.1228 114.676 67.8413 114.603 68.0458C114.129 69.2952 114.293 70.7082 115.052 71.8187C115.82 72.9212 117.077 73.5827 118.417 73.5827H174.611C181.423 73.5827 187.204 78.4582 187.776 84.6812C188.209 89.3362 185.971 93.7627 181.962 96.2372C180.712 97.0047 179.969 98.3932 180.026 99.8712C180.083 101.349 180.933 102.672 182.239 103.35C185.694 105.106 187.833 108.569 187.833 112.374C187.833 117.527 183.938 121.856 178.777 122.452Z" fill="#EF0303"/>
</svg>
