<svg width="81" height="20" viewBox="0 0 81 20" fill="none" xmlns="http://www.w3.org/2000/svg">
<path d="M12.9366 5.376C12.7806 5.20267 12.4513 4.97733 11.9486 4.7C11.446 4.40533 10.8393 4.14533 10.1286 3.92C9.43532 3.67733 8.71598 3.556 7.97065 3.556C6.01198 3.556 5.03265 4.24933 5.03265 5.636C5.03265 6.13867 5.18865 6.53733 5.50065 6.832C5.81265 7.12667 6.28065 7.378 6.90465 7.586C7.52865 7.794 8.30865 8.01933 9.24465 8.262C10.458 8.574 11.5066 8.938 12.3906 9.354C13.292 9.77 13.9766 10.3247 14.4446 11.018C14.93 11.694 15.1726 12.5953 15.1726 13.722C15.1726 15.0393 14.852 16.1053 14.2106 16.92C13.5866 17.7173 12.7546 18.298 11.7146 18.662C10.6746 19.026 9.54798 19.208 8.33465 19.208C6.94798 19.208 5.56998 19 4.20065 18.584C2.84865 18.1507 1.64398 17.5613 0.586648 16.816L2.17265 13.722C2.32865 13.878 2.60598 14.086 3.00465 14.346C3.40332 14.5887 3.88865 14.84 4.46065 15.1C5.03265 15.3427 5.65665 15.5507 6.33265 15.724C7.00865 15.8973 7.69332 15.984 8.38665 15.984C10.3626 15.984 11.3506 15.3513 11.3506 14.086C11.3506 13.5487 11.1513 13.1153 10.7526 12.786C10.354 12.4567 9.79065 12.1793 9.06265 11.954C8.35198 11.7287 7.51998 11.4773 6.56665 11.2C5.38798 10.8707 4.40865 10.5067 3.62865 10.108C2.86598 9.692 2.29398 9.18067 1.91265 8.574C1.53132 7.95 1.34065 7.16133 1.34065 6.208C1.34065 4.94267 1.63532 3.88533 2.22465 3.036C2.83132 2.16933 3.64598 1.51933 4.66865 1.086C5.69132 0.635333 6.82665 0.409999 8.07465 0.409999C9.35732 0.409999 10.5533 0.617999 11.6626 1.034C12.772 1.45 13.7253 1.92667 14.5226 2.464L12.9366 5.376ZM31.69 3.686H25.788V19H22.226V3.686H16.324V0.539999H31.69V3.686ZM37.2731 0.539999H40.9131L47.6991 19H44.0071L42.2911 14.398H35.8431L34.1531 19H30.4611L37.2731 0.539999ZM41.6411 11.876L39.0931 4.258L36.4411 11.876H41.6411ZM49.7238 19V0.539999H57.8878C58.7371 0.539999 59.5171 0.713332 60.2278 1.06C60.9558 1.40667 61.5798 1.87467 62.0998 2.464C62.6371 3.05333 63.0445 3.712 63.3218 4.44C63.6165 5.168 63.7638 5.91333 63.7638 6.676C63.7638 7.85467 63.4605 8.938 62.8538 9.926C62.2645 10.914 61.4585 11.6247 60.4358 12.058L64.6478 19H60.6958L56.8998 12.812H53.3118V19H49.7238ZM53.3118 9.666H57.8098C58.4858 9.666 59.0405 9.38 59.4738 8.808C59.9245 8.21867 60.1498 7.508 60.1498 6.676C60.1498 6.104 60.0285 5.59267 59.7858 5.142C59.5431 4.69133 59.2311 4.336 58.8498 4.076C58.4858 3.816 58.0871 3.686 57.6538 3.686H53.3118V9.666ZM80.6177 3.686H74.7157V19H71.1537V3.686H65.2517V0.539999H80.6177V3.686Z" fill="white"/>
</svg>
