<svg width="210" height="211" viewBox="0 0 210 211" fill="none" xmlns="http://www.w3.org/2000/svg">
<path d="M207.2 189.074L199.5 187.478V183.05C199.497 179.972 198.48 176.981 196.608 174.538C194.736 172.095 192.111 170.336 189.14 169.533L143.465 157.231C150.863 148.343 156.128 137.879 158.858 126.642C161.588 115.405 161.71 103.692 159.215 92.4002L163.45 85.0677C163.817 84.4317 163.974 83.6963 163.9 82.9658C163.826 82.2353 163.524 81.5466 163.037 80.9972L157.003 74.2002L170.653 70.5392C171.549 70.2996 172.313 69.7142 172.777 68.9117L209.531 5.25021C209.89 4.62739 210.048 3.90919 209.985 3.19322C209.921 2.47724 209.638 1.7982 209.175 1.2484C208.712 0.698591 208.091 0.304675 207.397 0.120182C206.702 -0.064311 205.967 -0.0304325 205.292 0.217213L172.669 12.2152C163.754 15.5008 155.214 19.7245 147.192 24.8152C146.677 25.1422 146.255 25.5986 145.97 26.1389C145.685 26.6793 145.547 27.2848 145.568 27.8952L145.712 32.0532L143.426 30.3032C142.823 29.8453 142.088 29.5954 141.331 29.5909C140.573 29.5865 139.835 29.8279 139.226 30.2787C134.006 34.174 129.074 38.4424 124.47 43.0502C115.979 37.7739 106.535 34.2159 96.6734 32.5782L99.5644 31.1327C100.395 30.7178 101.027 29.9898 101.321 29.109C101.615 28.2281 101.547 27.2665 101.132 26.4357C100.718 25.6049 99.9895 24.973 99.1087 24.6789C98.2278 24.3849 97.2662 24.4528 96.4354 24.8677L82.4354 31.8677C81.8976 32.1332 81.4371 32.5324 81.0979 33.027C80.7588 33.5217 80.5524 34.0952 80.4986 34.6925C80.4449 35.2898 80.5455 35.891 80.7909 36.4382C81.0363 36.9855 81.4182 37.4605 81.8999 37.8177L95.8999 48.3177C96.2676 48.5935 96.6861 48.7941 97.1313 48.9082C97.5766 49.0223 98.0399 49.0475 98.4949 48.9825C98.9499 48.9175 99.3877 48.7635 99.7832 48.5294C100.179 48.2952 100.524 47.9854 100.8 47.6177C101.076 47.25 101.276 46.8316 101.39 46.3863C101.505 45.9411 101.53 45.4777 101.465 45.0227C101.4 44.5677 101.246 44.13 101.012 43.7345C100.777 43.339 100.468 42.9935 100.1 42.7177L95.8999 39.5677C104.239 40.9925 112.248 43.9294 119.532 48.2337C118.062 49.8612 116.599 51.4957 115.213 53.1932C114.86 53.6216 114.615 54.1283 114.498 54.6708C114.381 55.2134 114.396 55.776 114.541 56.3117L116.291 62.8147C106.866 56.0935 95.5758 52.4871 83.9999 52.5002C71.2939 52.4911 58.963 56.8068 49.0358 64.7374C39.1085 72.6679 32.1759 83.741 29.3785 96.1353C26.581 108.53 28.0852 121.507 33.6437 132.933C39.2021 144.359 48.4838 153.552 59.9619 159.002L41.4819 163.975C32.1137 156.822 24.7063 147.417 19.9486 136.633C15.1909 125.849 13.2374 114.038 14.2698 102.296C15.3022 90.5547 19.287 79.2651 25.8536 69.477C32.4201 59.6889 41.3552 51.7203 51.8279 46.3122C52.2439 46.1052 52.6144 45.8175 52.918 45.4658C53.2216 45.1141 53.4521 44.7055 53.5961 44.2638C53.7401 43.8221 53.7947 43.3561 53.7568 42.8931C53.7189 42.4301 53.5892 41.9792 53.3752 41.5668C53.1612 41.1545 52.8673 40.7888 52.5105 40.4912C52.1538 40.1936 51.7414 39.97 51.2973 39.8334C50.8532 39.6969 50.3864 39.6501 49.9241 39.6958C49.4618 39.7415 49.0132 39.8788 48.6044 40.0997C37.4784 45.846 27.9245 54.2232 20.7736 64.5029C13.6227 74.7827 9.09127 86.6537 7.57336 99.0837C6.05544 111.514 7.59701 124.126 12.064 135.825C16.531 147.523 23.7882 157.953 33.2044 166.208L20.8704 169.53C17.8966 170.331 15.2694 172.089 13.395 174.533C11.5205 176.977 10.5031 179.97 10.4999 183.05V187.481L2.79994 189.077C2.01057 189.238 1.30094 189.667 0.790842 190.29C0.280739 190.914 0.00139196 191.695 -5.51848e-05 192.5V206.5C-0.0025151 206.991 0.0982024 207.476 0.295562 207.926C0.492921 208.375 0.782512 208.778 1.14555 209.108C1.50858 209.438 1.93694 209.688 2.40285 209.841C2.86875 209.995 3.36178 210.049 3.84994 210L87.6469 201.331C88.0775 203.763 89.3515 205.965 91.245 207.55C93.1385 209.136 95.5303 210.003 97.9999 210H112C114.47 210 116.862 209.129 118.753 207.54C120.645 205.952 121.916 203.747 122.342 201.313L206.15 210C206.272 210 206.391 210.018 206.5 210.018C207.428 210.018 208.318 209.649 208.975 208.993C209.631 208.336 210 207.446 210 206.518V192.5C209.999 191.694 209.72 190.913 209.21 190.288C208.7 189.664 207.99 189.235 207.2 189.074ZM192.5 183.05V186.032L108.5 168.651C108.514 167.05 108.896 165.473 109.615 164.042C110.334 162.611 111.371 161.363 112.647 160.396C113.924 159.428 115.405 158.766 116.977 158.46C118.549 158.154 120.17 158.212 121.716 158.631L187.306 176.288C188.796 176.686 190.112 177.564 191.051 178.787C191.99 180.01 192.5 181.508 192.5 183.05ZM135.961 155.211L123.55 151.869C122.383 151.562 121.188 151.375 119.983 151.312C131.261 141.77 138.333 128.175 139.671 113.463C145.427 111.178 150.316 107.137 153.643 101.913C153.863 104.129 153.993 106.33 153.993 108.497C153.988 125.767 147.561 142.417 135.961 155.211ZM167.461 64.1482L149.737 68.8977C149.161 69.0524 148.634 69.3517 148.206 69.7671C147.779 70.1826 147.464 70.7005 147.293 71.2716C147.121 71.8428 147.099 72.4482 147.227 73.0306C147.355 73.613 147.63 74.1529 148.025 74.5992L156.142 83.7517L148.344 97.2302C145.491 102.177 140.879 105.868 135.426 107.567C129.974 109.267 124.082 108.85 118.923 106.4C138.76 73.0949 164.075 43.3757 193.802 18.4942L167.461 64.1482ZM141.33 37.4922L147.35 42.0702C147.878 42.4665 148.506 42.7055 149.164 42.7597C149.822 42.814 150.481 42.6813 151.067 42.3769C151.652 42.0724 152.139 41.6087 152.473 41.0393C152.806 40.4698 152.971 39.8177 152.95 39.1582L152.617 29.6662C159.727 25.3121 167.247 21.6674 175.07 18.7847L188.419 13.8847C158.577 39.0288 133.131 68.968 113.127 102.473C109.359 98.972 106.891 94.295 106.128 89.2081C105.365 84.1212 106.352 78.926 108.927 74.4732C109.749 73.0452 110.656 71.5647 111.664 69.9932L120.645 75.1767C121.011 75.3793 121.41 75.5134 121.824 75.5722C121.94 75.5891 122.057 75.5996 122.174 75.6037C122.471 75.6212 122.769 75.6001 123.06 75.5407C123.178 75.5237 123.295 75.4991 123.41 75.4672C123.787 75.3622 124.142 75.1916 124.46 74.9632C124.481 74.9632 124.505 74.9457 124.523 74.9317C124.847 74.6714 125.123 74.3563 125.338 74.0007C125.359 73.9622 125.398 73.9447 125.419 73.9062C125.44 73.8677 125.454 73.7697 125.489 73.7067C125.632 73.4188 125.734 73.1126 125.793 72.7967C125.814 72.6847 125.846 72.5762 125.856 72.4467C125.898 72.0447 125.87 71.6385 125.772 71.2462L121.751 56.2312C127.586 49.3061 134.143 43.0242 141.312 37.4922H141.33ZM62.6289 152.52L66.0309 146.622C66.4878 145.819 66.6082 144.867 66.3661 143.975C66.1239 143.083 65.5388 142.323 64.7384 141.861C63.938 141.399 62.9873 141.272 62.0937 141.509C61.2002 141.745 60.4364 142.325 59.9689 143.122L56.5494 149.044C51.3772 145.567 46.9204 141.129 43.4209 135.972L49.3709 132.531C49.7722 132.303 50.1244 131.998 50.4072 131.633C50.69 131.268 50.8978 130.851 51.0188 130.406C51.1397 129.96 51.1713 129.495 51.1119 129.037C51.0524 128.58 50.9029 128.138 50.6721 127.739C50.4413 127.339 50.1337 126.989 49.7671 126.708C49.4004 126.428 48.9819 126.223 48.5357 126.105C48.0894 125.987 47.6242 125.958 47.1669 126.021C46.7096 126.083 46.2691 126.236 45.8709 126.469L39.9209 129.899C37.2024 124.292 35.5819 118.216 35.1469 112H41.9999C42.9282 112 43.8184 111.631 44.4748 110.975C45.1312 110.319 45.4999 109.428 45.4999 108.5C45.4999 107.572 45.1312 106.682 44.4748 106.025C43.8184 105.369 42.9282 105 41.9999 105H35.1784C35.6154 98.7892 37.2446 92.7205 39.9769 87.1257L45.8779 90.5312C46.2761 90.7646 46.7166 90.917 47.1739 90.9796C47.6312 91.0421 48.0964 91.0135 48.5427 90.8956C48.9889 90.7776 49.4074 90.5725 49.7741 90.2921C50.1407 90.0117 50.4483 89.6616 50.6791 89.2619C50.9099 88.8621 51.0594 88.4207 51.1189 87.963C51.1783 87.5052 51.1467 87.0402 51.0258 86.5948C50.9048 86.1493 50.697 85.7322 50.4142 85.3674C50.1314 85.0026 49.7792 84.6974 49.3779 84.4692L43.4279 81.0392C46.9285 75.8866 51.3723 71.4428 56.5249 67.9422L59.9549 73.8922C60.1831 74.2935 60.4883 74.6456 60.8531 74.9285C61.2179 75.2113 61.6351 75.4191 62.0805 75.54C62.526 75.661 62.991 75.6926 63.4487 75.6331C63.9064 75.5736 64.3479 75.4242 64.7476 75.1934C65.1473 74.9626 65.4975 74.655 65.7778 74.2883C66.0582 73.9217 66.2633 73.5032 66.3813 73.0569C66.4993 72.6107 66.5278 72.1455 66.4653 71.6882C66.4028 71.2309 66.2504 70.7904 66.0169 70.3922L62.6114 64.4912C68.2096 61.7523 74.2832 60.1183 80.4999 59.6787V66.5002C80.4999 67.4285 80.8687 68.3187 81.5251 68.9751C82.1814 69.6315 83.0717 70.0002 83.9999 70.0002C84.9282 70.0002 85.8184 69.6315 86.4748 68.9751C87.1312 68.3187 87.4999 67.4285 87.4999 66.5002V59.6717C94.1604 60.1221 100.656 61.9415 106.582 65.0162C105.21 67.1162 103.957 69.1077 102.879 70.9662C99.385 77.0072 98.1295 84.0854 99.3327 90.9595C100.536 97.8336 104.121 104.065 109.459 108.56L95.2209 133.228C94.9875 133.626 94.8351 134.066 94.7726 134.524C94.7101 134.981 94.7386 135.446 94.8566 135.892C94.9746 136.339 95.1797 136.757 95.46 137.124C95.7404 137.491 96.0906 137.798 96.4903 138.029C96.89 138.26 97.3315 138.409 97.7892 138.469C98.2469 138.528 98.7119 138.496 99.1574 138.376C99.6028 138.255 100.02 138.047 100.385 137.764C100.75 137.481 101.055 137.129 101.283 136.728L115.339 112.382C119.445 114.477 123.984 115.581 128.593 115.605C129.874 115.603 131.153 115.519 132.422 115.353C131.704 120.388 130.203 125.279 127.974 129.85L122.122 126.473C121.318 126.016 120.367 125.895 119.475 126.138C118.583 126.38 117.823 126.965 117.361 127.765C116.899 128.566 116.772 129.516 117.008 130.41C117.245 131.303 117.825 132.067 118.622 132.535L124.474 135.912C120.991 141.063 116.565 145.507 111.429 149.013L108.031 143.126C107.803 142.724 107.498 142.372 107.133 142.089C106.768 141.807 106.351 141.599 105.905 141.478C105.46 141.357 104.995 141.325 104.537 141.385C104.079 141.444 103.638 141.594 103.238 141.825C102.839 142.055 102.488 142.363 102.208 142.73C101.928 143.096 101.723 143.515 101.605 143.961C101.487 144.407 101.458 144.872 101.521 145.33C101.583 145.787 101.736 146.228 101.969 146.626L105.381 152.537C103.95 153.237 102.469 153.857 100.961 154.417C98.876 152.956 96.4958 151.971 93.9883 151.531C91.4809 151.092 88.9075 151.208 86.45 151.872L71.673 155.852C68.5568 155.039 65.5277 153.923 62.6289 152.52ZM17.4999 183.05C17.5001 181.511 18.0077 180.014 18.9441 178.793C19.8805 177.571 21.1935 176.692 22.6799 176.292L88.2699 158.634C89.8165 158.213 91.439 158.153 93.0126 158.457C94.5863 158.762 96.069 159.424 97.3469 160.391C98.6248 161.359 99.6636 162.606 100.384 164.038C101.104 165.47 101.486 167.048 101.5 168.651L17.4999 186.029V183.05ZM203 202.622L119.35 193.967C118.863 193.92 118.371 193.975 117.906 194.126C117.44 194.278 117.011 194.524 116.644 194.849C116.281 195.177 115.99 195.578 115.791 196.026C115.592 196.474 115.489 196.959 115.489 197.449V199.5C115.489 200.428 115.121 201.319 114.464 201.975C113.808 202.631 112.918 203 111.989 203H97.9999C97.0717 203 96.1814 202.631 95.5251 201.975C94.8687 201.319 94.4999 200.428 94.4999 199.5V197.449C94.4999 196.521 94.1312 195.631 93.4748 194.974C92.8184 194.318 91.9282 193.949 90.9999 193.949C90.881 193.949 90.7619 193.949 90.6499 193.949L6.99995 202.619V195.349L101.5 175.798V189C101.5 189.928 101.869 190.819 102.525 191.475C103.181 192.131 104.072 192.5 105 192.5C105.928 192.5 106.818 192.131 107.475 191.475C108.131 190.819 108.5 189.928 108.5 189V175.798L203 195.349V202.622Z" fill="#A73348"/>
</svg>
