<svg width="18" height="49" viewBox="0 0 18 49" fill="none" xmlns="http://www.w3.org/2000/svg">
<path d="M17.5 31.5V3.5C17.5 2.57174 17.1312 1.6815 16.4749 1.02512C15.8185 0.368746 14.9282 0 14 0C13.0717 0 12.1815 0.368746 11.5251 1.02512C10.8687 1.6815 10.5 2.57174 10.5 3.5V30.3345L0.699989 43.4C0.143034 44.1426 -0.0961154 45.076 0.0351601 45.995C0.166436 46.9139 0.657378 47.743 1.39998 48.3C2.14259 48.8569 3.07604 49.0961 3.99497 48.9648C4.91389 48.8335 5.74303 48.3426 6.29999 47.6L16.8 33.6C17.2544 32.9942 17.5 32.2573 17.5 31.5Z" fill="#A73348"/>
</svg>
