<svg width="16" height="16" viewBox="0 0 16 16" fill="none" xmlns="http://www.w3.org/2000/svg">
<path d="M0.393693 7.04916L7.04914 0.393693C7.57406 -0.131231 8.4254 -0.131231 8.95033 0.393693C9.47525 0.918617 9.47525 1.76996 8.95033 2.29489L3.2461 7.99909L8.95033 13.7033C9.47525 14.2282 9.47525 15.0795 8.95033 15.6045C8.4254 16.1294 7.57406 16.1294 7.04914 15.6045L0.393693 8.94902C-0.131231 8.4254 -0.131231 7.57409 0.393693 7.04916ZM8.3961 6.64614L13.68 1.07717C14.2109 0.51829 15.0709 0.51829 15.6018 1.07717C16.1327 1.63606 16.1327 2.54269 15.6018 3.10226L11.2785 7.65868L15.6018 12.2151C16.1327 12.774 16.1327 13.6813 15.6018 14.2402C15.0709 14.7991 14.2109 14.7991 13.68 14.2402L8.3961 8.67123C7.86516 8.11234 7.86516 7.20571 8.3961 6.64614Z" fill="#9E9797"/>
</svg>
